<svg width="126" height="175" viewBox="0 0 126 175" fill="none" xmlns="http://www.w3.org/2000/svg">
<rect width="126" height="175" fill="white"/>
<g id="Frame 1">
<rect id="Rectangle 1" x="-126" y="-70" width="417" height="376" fill="#FFFBFB"/>
<g id="Rectangle 2" filter="url(#filter0_d_5_11)">
<path d="M4 0H72C99.6142 0 122 22.3858 122 50V167H54C26.3858 167 4 144.614 4 117V0Z" fill="white"/>
</g>
<rect id="Rectangle 3" x="44" y="20" width="38" height="37" rx="18.5" fill="#F0A037" fill-opacity="0.94"/>
<rect id="Rectangle 4" x="38" y="13" width="50" height="50" rx="25" fill="#F0A037" fill-opacity="0.41"/>
<path id="Polygon 1" d="M82.0836 4L104.167 38.5H60L82.0836 4Z" fill="white"/>
<path id="Samay Raina" d="M29.5665 84.13C28.9035 84.13 28.3358 84.026 27.8635 83.818C27.3955 83.6057 27.0358 83.2872 26.7845 82.8625C26.5331 82.4378 26.4075 81.9092 26.4075 81.2765C26.4075 81.1898 26.4075 81.1162 26.4075 81.0555C26.4075 80.9948 26.4075 80.9212 26.4075 80.8345H27.519C27.519 80.9168 27.519 80.9862 27.519 81.0425C27.519 81.0988 27.519 81.1703 27.519 81.257C27.519 81.92 27.6923 82.3988 28.039 82.6935C28.3856 82.9838 28.8905 83.129 29.5535 83.129C30.2381 83.129 30.756 83.012 31.107 82.778C31.458 82.544 31.6335 82.1648 31.6335 81.6405C31.6335 81.2722 31.5316 80.9667 31.328 80.724C31.1286 80.477 30.8513 80.269 30.496 80.1C30.1406 79.9267 29.7268 79.7685 29.2545 79.6255C28.7215 79.4608 28.2448 79.2528 27.8245 79.0015C27.4085 78.7502 27.0791 78.4403 26.8365 78.072C26.5981 77.6993 26.479 77.2465 26.479 76.7135C26.479 76.1935 26.6046 75.7537 26.856 75.394C27.1116 75.0343 27.467 74.7613 27.922 74.575C28.377 74.3887 28.9056 74.2955 29.508 74.2955C30.145 74.2955 30.6975 74.3952 31.1655 74.5945C31.6378 74.7895 32.0018 75.0885 32.2575 75.4915C32.5175 75.8902 32.6475 76.3928 32.6475 76.9995C32.6475 77.0948 32.6475 77.1772 32.6475 77.2465C32.6475 77.3115 32.6475 77.3917 32.6475 77.487H31.536C31.536 77.4047 31.536 77.331 31.536 77.266C31.536 77.201 31.536 77.1273 31.536 77.045C31.536 76.4123 31.3648 75.9638 31.0225 75.6995C30.6801 75.4308 30.1818 75.2965 29.5275 75.2965C28.8991 75.2965 28.4138 75.407 28.0715 75.628C27.7291 75.849 27.558 76.2108 27.558 76.7135C27.558 77.0905 27.662 77.4025 27.87 77.6495C28.0823 77.8922 28.3705 78.1002 28.7345 78.2735C29.0985 78.4425 29.5145 78.605 29.9825 78.761C30.5501 78.9473 31.0376 79.1597 31.445 79.398C31.8566 79.632 32.1708 79.9245 32.3875 80.2755C32.6085 80.6265 32.719 81.0685 32.719 81.6015C32.719 82.1345 32.5911 82.5895 32.3355 82.9665C32.0841 83.3435 31.7223 83.6317 31.25 83.831C30.782 84.0303 30.2208 84.13 29.5665 84.13ZM36.7869 84.13C36.2625 84.13 35.8032 84.0477 35.4089 83.883C35.0189 83.7183 34.7155 83.4822 34.4989 83.1745C34.2822 82.8625 34.1739 82.4898 34.1739 82.0565C34.1739 81.6058 34.2909 81.231 34.5249 80.932C34.7589 80.6287 35.0882 80.3925 35.5129 80.2235C35.9375 80.0545 36.4315 79.9418 36.9949 79.8855C37.8442 79.7988 38.4487 79.7143 38.8084 79.632C39.168 79.5453 39.3479 79.4067 39.3479 79.216C39.3479 79.2117 39.3479 79.2095 39.3479 79.2095C39.3479 79.2052 39.3479 79.2008 39.3479 79.1965C39.3479 78.7978 39.1854 78.501 38.8604 78.306C38.5354 78.1067 38.0652 78.007 37.4499 78.007C36.8085 78.007 36.3102 78.1197 35.9549 78.345C35.5995 78.566 35.4219 78.9257 35.4219 79.424H34.3299C34.3299 78.9083 34.462 78.4707 34.7264 78.111C34.9907 77.747 35.3569 77.4697 35.8249 77.279C36.2972 77.0883 36.841 76.993 37.4564 76.993C38.0197 76.993 38.5267 77.0797 38.9774 77.253C39.4324 77.422 39.792 77.6755 40.0564 78.0135C40.325 78.3472 40.4594 78.761 40.4594 79.255C40.4594 79.346 40.4594 79.437 40.4594 79.528C40.4594 79.6147 40.4594 79.7035 40.4594 79.7945V82.7C40.4594 82.8517 40.4659 82.999 40.4789 83.142C40.4919 83.285 40.5135 83.4107 40.5439 83.519C40.5829 83.649 40.6262 83.7552 40.6739 83.8375C40.7215 83.9155 40.7605 83.9697 40.7909 84H39.6794C39.6577 83.9783 39.6252 83.9285 39.5819 83.8505C39.5385 83.7682 39.4974 83.6728 39.4584 83.5645C39.428 83.4778 39.4042 83.3695 39.3869 83.2395C39.3695 83.1052 39.3609 82.9665 39.3609 82.8235L39.5429 82.947C39.4085 83.181 39.2114 83.3868 38.9514 83.5645C38.6957 83.7422 38.3859 83.8808 38.0219 83.9805C37.6579 84.0802 37.2462 84.13 36.7869 84.13ZM36.9624 83.1355C37.4087 83.1355 37.8117 83.0683 38.1714 82.934C38.531 82.7953 38.817 82.5917 39.0294 82.323C39.2417 82.0543 39.3479 81.7207 39.3479 81.322V79.9505L39.5949 80.3665C39.3175 80.4748 38.9709 80.5637 38.5549 80.633C38.1432 80.698 37.712 80.7522 37.2614 80.7955C36.607 80.8562 36.113 80.971 35.7794 81.14C35.45 81.309 35.2854 81.5928 35.2854 81.9915C35.2854 82.3685 35.4219 82.6545 35.6949 82.8495C35.9679 83.0402 36.3904 83.1355 36.9624 83.1355ZM46.5417 84V80.9515C46.5417 80.6828 46.5417 80.451 46.5417 80.256C46.5417 80.0567 46.5417 79.8898 46.5417 79.7555C46.5417 79.5865 46.5287 79.4045 46.5027 79.2095C46.4811 79.0102 46.4269 78.8238 46.3402 78.6505C46.2536 78.4728 46.1171 78.3277 45.9307 78.215C45.7487 78.1023 45.4952 78.046 45.1702 78.046C44.8409 78.046 44.5636 78.111 44.3382 78.241C44.1129 78.3667 43.9309 78.5335 43.7922 78.7415C43.6536 78.9495 43.5539 79.1792 43.4932 79.4305C43.4326 79.6775 43.4022 79.9223 43.4022 80.165L42.7782 79.9115C42.7782 79.3915 42.8866 78.9105 43.1032 78.4685C43.3199 78.0265 43.6232 77.6712 44.0132 77.4025C44.4076 77.1295 44.8691 76.993 45.3977 76.993C45.9221 76.993 46.3489 77.0992 46.6782 77.3115C47.0076 77.5238 47.2502 77.8163 47.4062 78.189C47.5622 78.5617 47.6402 78.9907 47.6402 79.476C47.6402 79.6493 47.6402 79.8725 47.6402 80.1455C47.6402 80.4142 47.6402 80.7218 47.6402 81.0685V84H46.5417ZM42.2972 84V77.097H43.4022V84H42.2972ZM50.7732 84V80.9515C50.7732 80.6568 50.7732 80.4142 50.7732 80.2235C50.7732 80.0285 50.7732 79.8638 50.7732 79.7295C50.7732 79.5605 50.7624 79.3785 50.7407 79.1835C50.7191 78.9885 50.6649 78.8065 50.5782 78.6375C50.4916 78.4642 50.3529 78.3233 50.1622 78.215C49.9759 78.1023 49.7137 78.046 49.3757 78.046C49.0421 78.046 48.7626 78.1088 48.5372 78.2345C48.3162 78.3602 48.1386 78.5248 48.0042 78.7285C47.8742 78.9322 47.7811 79.1532 47.7247 79.3915C47.6684 79.6255 47.6402 79.8508 47.6402 80.0675L47.0162 79.827C47.0162 79.333 47.1202 78.8715 47.3282 78.4425C47.5406 78.0092 47.8396 77.6603 48.2252 77.396C48.6152 77.1273 49.0767 76.993 49.6097 76.993C50.1081 76.993 50.5241 77.0905 50.8577 77.2855C51.1957 77.4805 51.4492 77.7557 51.6182 78.111C51.7916 78.462 51.8782 78.8802 51.8782 79.3655C51.8782 79.5475 51.8782 79.7728 51.8782 80.0415C51.8782 80.3102 51.8782 80.6135 51.8782 80.9515V84H50.7732ZM56.2107 84.13C55.6864 84.13 55.227 84.0477 54.8327 83.883C54.4427 83.7183 54.1394 83.4822 53.9227 83.1745C53.706 82.8625 53.5977 82.4898 53.5977 82.0565C53.5977 81.6058 53.7147 81.231 53.9487 80.932C54.1827 80.6287 54.512 80.3925 54.9367 80.2235C55.3614 80.0545 55.8554 79.9418 56.4187 79.8855C57.268 79.7988 57.8725 79.7143 58.2322 79.632C58.5919 79.5453 58.7717 79.4067 58.7717 79.216C58.7717 79.2117 58.7717 79.2095 58.7717 79.2095C58.7717 79.2052 58.7717 79.2008 58.7717 79.1965C58.7717 78.7978 58.6092 78.501 58.2842 78.306C57.9592 78.1067 57.489 78.007 56.8737 78.007C56.2324 78.007 55.734 78.1197 55.3787 78.345C55.0234 78.566 54.8457 78.9257 54.8457 79.424H53.7537C53.7537 78.9083 53.8859 78.4707 54.1502 78.111C54.4145 77.747 54.7807 77.4697 55.2487 77.279C55.721 77.0883 56.2649 76.993 56.8802 76.993C57.4435 76.993 57.9505 77.0797 58.4012 77.253C58.8562 77.422 59.2159 77.6755 59.4802 78.0135C59.7489 78.3472 59.8832 78.761 59.8832 79.255C59.8832 79.346 59.8832 79.437 59.8832 79.528C59.8832 79.6147 59.8832 79.7035 59.8832 79.7945V82.7C59.8832 82.8517 59.8897 82.999 59.9027 83.142C59.9157 83.285 59.9374 83.4107 59.9677 83.519C60.0067 83.649 60.05 83.7552 60.0977 83.8375C60.1454 83.9155 60.1844 83.9697 60.2147 84H59.1032C59.0815 83.9783 59.049 83.9285 59.0057 83.8505C58.9624 83.7682 58.9212 83.6728 58.8822 83.5645C58.8519 83.4778 58.828 83.3695 58.8107 83.2395C58.7934 83.1052 58.7847 82.9665 58.7847 82.8235L58.9667 82.947C58.8324 83.181 58.6352 83.3868 58.3752 83.5645C58.1195 83.7422 57.8097 83.8808 57.4457 83.9805C57.0817 84.0802 56.67 84.13 56.2107 84.13ZM56.3862 83.1355C56.8325 83.1355 57.2355 83.0683 57.5952 82.934C57.9549 82.7953 58.2409 82.5917 58.4532 82.323C58.6655 82.0543 58.7717 81.7207 58.7717 81.322V79.9505L59.0187 80.3665C58.7414 80.4748 58.3947 80.5637 57.9787 80.633C57.567 80.698 57.1359 80.7522 56.6852 80.7955C56.0309 80.8562 55.5369 80.971 55.2032 81.14C54.8739 81.309 54.7092 81.5928 54.7092 81.9915C54.7092 82.3685 54.8457 82.6545 55.1187 82.8495C55.3917 83.0402 55.8142 83.1355 56.3862 83.1355ZM61.6752 86.912C61.5018 86.912 61.3437 86.9012 61.2007 86.8795C61.0577 86.8622 60.9688 86.8448 60.9342 86.8275V85.8655C60.9905 85.8915 61.0837 85.9132 61.2137 85.9305C61.3437 85.9478 61.4737 85.9565 61.6037 85.9565C61.881 85.9565 62.115 85.898 62.3057 85.781C62.4963 85.6683 62.6567 85.5123 62.7867 85.313C62.9167 85.118 63.0228 84.897 63.1052 84.65L63.3132 84.039L60.9342 77.097H62.0912L64.0022 83.0445H63.8462L65.7182 77.097H66.8557L64.3272 84.5915C64.1842 85.0118 64.0108 85.3975 63.8072 85.7485C63.6078 86.0995 63.3392 86.3812 63.0012 86.5935C62.6675 86.8058 62.2255 86.912 61.6752 86.912ZM71.4058 84V74.4125H74.7338C75.6134 74.4125 76.2829 74.6205 76.7423 75.0365C77.2016 75.4525 77.4313 76.0873 77.4313 76.941C77.4313 77.4523 77.3338 77.8878 77.1388 78.2475C76.9481 78.6028 76.7163 78.878 76.4433 79.073C76.1746 79.268 75.9254 79.3785 75.6958 79.4045C75.9298 79.4218 76.1594 79.4868 76.3848 79.5995C76.6144 79.7078 76.8051 79.8768 76.9568 80.1065C77.1084 80.3362 77.1843 80.6438 77.1843 81.0295C77.1843 81.3848 77.1843 81.7488 77.1843 82.1215C77.1843 82.4898 77.1843 82.8538 77.1843 83.2135C77.1843 83.3998 77.1994 83.5667 77.2298 83.714C77.2601 83.857 77.2948 83.9523 77.3338 84H76.2158C76.1854 83.9437 76.1551 83.8462 76.1248 83.7075C76.0944 83.5688 76.0793 83.4042 76.0793 83.2135C76.0793 82.8798 76.0793 82.5397 76.0793 82.193C76.0793 81.8463 76.0793 81.504 76.0793 81.166C76.0793 80.7413 75.9449 80.425 75.6763 80.217C75.4076 80.009 75.0284 79.905 74.5388 79.905H72.1793L72.4913 79.4825V84H71.4058ZM72.4913 79.3915L72.1793 78.93H74.5518C74.8724 78.93 75.1628 78.852 75.4228 78.696C75.6871 78.5357 75.8973 78.3147 76.0533 78.033C76.2136 77.747 76.2938 77.4133 76.2938 77.032C76.2938 76.4383 76.1378 76.0158 75.8258 75.7645C75.5138 75.5132 75.0631 75.3875 74.4738 75.3875H72.1533L72.4913 74.9065V79.3915ZM81.6267 84.13C81.1024 84.13 80.643 84.0477 80.2487 83.883C79.8587 83.7183 79.5554 83.4822 79.3387 83.1745C79.122 82.8625 79.0137 82.4898 79.0137 82.0565C79.0137 81.6058 79.1307 81.231 79.3647 80.932C79.5987 80.6287 79.928 80.3925 80.3527 80.2235C80.7774 80.0545 81.2714 79.9418 81.8347 79.8855C82.684 79.7988 83.2885 79.7143 83.6482 79.632C84.0079 79.5453 84.1877 79.4067 84.1877 79.216C84.1877 79.2117 84.1877 79.2095 84.1877 79.2095C84.1877 79.2052 84.1877 79.2008 84.1877 79.1965C84.1877 78.7978 84.0252 78.501 83.7002 78.306C83.3752 78.1067 82.905 78.007 82.2897 78.007C81.6484 78.007 81.15 78.1197 80.7947 78.345C80.4394 78.566 80.2617 78.9257 80.2617 79.424H79.1697C79.1697 78.9083 79.3019 78.4707 79.5662 78.111C79.8305 77.747 80.1967 77.4697 80.6647 77.279C81.137 77.0883 81.6809 76.993 82.2962 76.993C82.8595 76.993 83.3665 77.0797 83.8172 77.253C84.2722 77.422 84.6319 77.6755 84.8962 78.0135C85.1649 78.3472 85.2992 78.761 85.2992 79.255C85.2992 79.346 85.2992 79.437 85.2992 79.528C85.2992 79.6147 85.2992 79.7035 85.2992 79.7945V82.7C85.2992 82.8517 85.3057 82.999 85.3187 83.142C85.3317 83.285 85.3534 83.4107 85.3837 83.519C85.4227 83.649 85.466 83.7552 85.5137 83.8375C85.5614 83.9155 85.6004 83.9697 85.6307 84H84.5192C84.4975 83.9783 84.465 83.9285 84.4217 83.8505C84.3784 83.7682 84.3372 83.6728 84.2982 83.5645C84.2679 83.4778 84.244 83.3695 84.2267 83.2395C84.2094 83.1052 84.2007 82.9665 84.2007 82.8235L84.3827 82.947C84.2484 83.181 84.0512 83.3868 83.7912 83.5645C83.5355 83.7422 83.2257 83.8808 82.8617 83.9805C82.4977 84.0802 82.086 84.13 81.6267 84.13ZM81.8022 83.1355C82.2485 83.1355 82.6515 83.0683 83.0112 82.934C83.3709 82.7953 83.6569 82.5917 83.8692 82.323C84.0815 82.0543 84.1877 81.7207 84.1877 81.322V79.9505L84.4347 80.3665C84.1574 80.4748 83.8107 80.5637 83.3947 80.633C82.983 80.698 82.5519 80.7522 82.1012 80.7955C81.4469 80.8562 80.9529 80.971 80.6192 81.14C80.2899 81.309 80.1252 81.5928 80.1252 81.9915C80.1252 82.3685 80.2617 82.6545 80.5347 82.8495C80.8077 83.0402 81.2302 83.1355 81.8022 83.1355ZM87.2021 84V77.097H88.2941V84H87.2021ZM87.7546 75.511C87.5509 75.511 87.3732 75.4547 87.2216 75.342C87.0742 75.225 87.0006 75.0668 87.0006 74.8675C87.0006 74.6725 87.0742 74.5187 87.2216 74.406C87.3732 74.289 87.5509 74.2305 87.7546 74.2305C87.9582 74.2305 88.1337 74.289 88.2811 74.406C88.4284 74.5187 88.5021 74.6725 88.5021 74.8675C88.5021 75.0668 88.4284 75.225 88.2811 75.342C88.1337 75.4547 87.9582 75.511 87.7546 75.511ZM95.289 84V80.6915C95.289 80.4922 95.289 80.3297 95.289 80.204C95.289 80.074 95.289 79.9505 95.289 79.8335C95.289 79.4738 95.2283 79.1597 95.107 78.891C94.9857 78.6223 94.795 78.4143 94.535 78.267C94.275 78.1197 93.9348 78.046 93.5145 78.046C93.1462 78.046 92.8038 78.1413 92.4875 78.332C92.1755 78.5183 91.9242 78.7718 91.7335 79.0925C91.5472 79.4088 91.454 79.7642 91.454 80.1585L90.8235 79.918C90.8235 79.3763 90.9557 78.8845 91.22 78.4425C91.4887 78.0005 91.844 77.6495 92.286 77.3895C92.7323 77.1252 93.2177 76.993 93.742 76.993C94.275 76.993 94.7408 77.0948 95.1395 77.2985C95.5382 77.5022 95.8458 77.7947 96.0625 78.176C96.2835 78.553 96.394 79.008 96.394 79.541C96.394 79.7317 96.394 79.9397 96.394 80.165C96.394 80.3903 96.394 80.6005 96.394 80.7955V84H95.289ZM90.349 84V77.097H91.454V84H90.349ZM100.733 84.13C100.209 84.13 99.7495 84.0477 99.3551 83.883C98.9651 83.7183 98.6618 83.4822 98.4451 83.1745C98.2285 82.8625 98.1201 82.4898 98.1201 82.0565C98.1201 81.6058 98.2371 81.231 98.4711 80.932C98.7051 80.6287 99.0345 80.3925 99.4591 80.2235C99.8838 80.0545 100.378 79.9418 100.941 79.8855C101.79 79.7988 102.395 79.7143 102.755 79.632C103.114 79.5453 103.294 79.4067 103.294 79.216C103.294 79.2117 103.294 79.2095 103.294 79.2095C103.294 79.2052 103.294 79.2008 103.294 79.1965C103.294 78.7978 103.132 78.501 102.807 78.306C102.482 78.1067 102.011 78.007 101.396 78.007C100.755 78.007 100.256 78.1197 99.9011 78.345C99.5458 78.566 99.3681 78.9257 99.3681 79.424H98.2761C98.2761 78.9083 98.4083 78.4707 98.6726 78.111C98.937 77.747 99.3031 77.4697 99.7711 77.279C100.243 77.0883 100.787 76.993 101.403 76.993C101.966 76.993 102.473 77.0797 102.924 77.253C103.379 77.422 103.738 77.6755 104.003 78.0135C104.271 78.3472 104.406 78.761 104.406 79.255C104.406 79.346 104.406 79.437 104.406 79.528C104.406 79.6147 104.406 79.7035 104.406 79.7945V82.7C104.406 82.8517 104.412 82.999 104.425 83.142C104.438 83.285 104.46 83.4107 104.49 83.519C104.529 83.649 104.572 83.7552 104.62 83.8375C104.668 83.9155 104.707 83.9697 104.737 84H103.626C103.604 83.9783 103.571 83.9285 103.528 83.8505C103.485 83.7682 103.444 83.6728 103.405 83.5645C103.374 83.4778 103.35 83.3695 103.333 83.2395C103.316 83.1052 103.307 82.9665 103.307 82.8235L103.489 82.947C103.355 83.181 103.158 83.3868 102.898 83.5645C102.642 83.7422 102.332 83.8808 101.968 83.9805C101.604 84.0802 101.192 84.13 100.733 84.13ZM100.909 83.1355C101.355 83.1355 101.758 83.0683 102.118 82.934C102.477 82.7953 102.763 82.5917 102.976 82.323C103.188 82.0543 103.294 81.7207 103.294 81.322V79.9505L103.541 80.3665C103.264 80.4748 102.917 80.5637 102.501 80.633C102.089 80.698 101.658 80.7522 101.208 80.7955C100.553 80.8562 100.059 80.971 99.7256 81.14C99.3963 81.309 99.2316 81.5928 99.2316 81.9915C99.2316 82.3685 99.3681 82.6545 99.6411 82.8495C99.9141 83.0402 100.337 83.1355 100.909 83.1355Z" fill="black"/>
<path id="Teaches with humour,clarity and engaging story telling" d="M32.689 99.5085V98.7273H38.1436V99.5085H35.8566V106H34.9759V99.5085H32.689ZM40.885 106.114C40.3595 106.114 39.9061 105.998 39.5249 105.766C39.1462 105.531 38.8538 105.205 38.6478 104.786C38.4442 104.364 38.3424 103.874 38.3424 103.315C38.3424 102.757 38.4442 102.264 38.6478 101.838C38.8538 101.41 39.1402 101.076 39.5072 100.837C39.8765 100.595 40.3074 100.474 40.7998 100.474C41.0839 100.474 41.3644 100.522 41.6414 100.616C41.9184 100.711 42.1705 100.865 42.3978 101.078C42.6251 101.289 42.8062 101.568 42.9411 101.916C43.0761 102.264 43.1436 102.693 43.1436 103.202V103.557H38.939V102.832H42.2913C42.2913 102.525 42.2297 102.25 42.1066 102.009C41.9859 101.767 41.8131 101.576 41.5882 101.437C41.3656 101.297 41.1028 101.227 40.7998 101.227C40.466 101.227 40.1772 101.31 39.9333 101.476C39.6919 101.639 39.506 101.852 39.3758 102.115C39.2456 102.378 39.1805 102.66 39.1805 102.96V103.443C39.1805 103.855 39.2515 104.204 39.3936 104.491C39.538 104.775 39.738 104.991 39.9937 105.141C40.2494 105.287 40.5465 105.361 40.885 105.361C41.1052 105.361 41.3041 105.33 41.4816 105.268C41.6615 105.205 41.8166 105.11 41.9468 104.984C42.077 104.857 42.1776 104.698 42.2487 104.509L43.0583 104.736C42.9731 105.01 42.8299 105.252 42.6286 105.46C42.4274 105.666 42.1788 105.827 41.8829 105.943C41.587 106.057 41.2544 106.114 40.885 106.114ZM46.0235 106.128C45.6779 106.128 45.3642 106.063 45.0825 105.933C44.8008 105.8 44.577 105.609 44.4113 105.361C44.2456 105.11 44.1627 104.807 44.1627 104.452C44.1627 104.139 44.2243 103.886 44.3474 103.692C44.4705 103.495 44.635 103.341 44.841 103.23C45.047 103.119 45.2742 103.036 45.5228 102.982C45.7738 102.925 46.0259 102.88 46.2792 102.847C46.6106 102.804 46.8794 102.772 47.0853 102.751C47.2936 102.727 47.4452 102.688 47.5399 102.634C47.6369 102.579 47.6855 102.484 47.6855 102.349V102.321C47.6855 101.971 47.5896 101.698 47.3978 101.504C47.2084 101.31 46.9208 101.213 46.5349 101.213C46.1348 101.213 45.8211 101.301 45.5938 101.476C45.3666 101.651 45.2068 101.838 45.1144 102.037L44.319 101.753C44.461 101.421 44.6504 101.163 44.8872 100.979C45.1263 100.792 45.3867 100.661 45.6684 100.588C45.9525 100.512 46.2319 100.474 46.5065 100.474C46.6817 100.474 46.8829 100.496 47.1102 100.538C47.3398 100.579 47.5612 100.663 47.7742 100.79C47.9897 100.918 48.1684 101.111 48.3105 101.369C48.4525 101.627 48.5235 101.973 48.5235 102.406V106H47.6855V105.261H47.6428C47.586 105.38 47.4913 105.506 47.3588 105.641C47.2262 105.776 47.0498 105.891 46.8296 105.986C46.6095 106.08 46.3408 106.128 46.0235 106.128ZM46.1514 105.375C46.4828 105.375 46.7622 105.31 46.9894 105.18C47.2191 105.049 47.3919 104.881 47.5079 104.675C47.6263 104.469 47.6855 104.253 47.6855 104.026V103.259C47.6499 103.301 47.5718 103.34 47.4511 103.376C47.3327 103.409 47.1954 103.438 47.0392 103.464C46.8853 103.488 46.7349 103.509 46.5882 103.528C46.4437 103.545 46.3266 103.559 46.2366 103.571C46.0188 103.599 45.8152 103.646 45.6258 103.71C45.4388 103.771 45.2873 103.865 45.1713 103.99C45.0576 104.113 45.0008 104.281 45.0008 104.494C45.0008 104.786 45.1085 105.006 45.324 105.155C45.5418 105.302 45.8176 105.375 46.1514 105.375ZM52.2691 106.114C51.7577 106.114 51.3174 105.993 50.9481 105.751C50.5787 105.51 50.2947 105.177 50.0958 104.754C49.8969 104.33 49.7975 103.846 49.7975 103.301C49.7975 102.747 49.8993 102.258 50.1029 101.835C50.3089 101.408 50.5953 101.076 50.9623 100.837C51.3316 100.595 51.7625 100.474 52.2549 100.474C52.6384 100.474 52.984 100.545 53.2918 100.688C53.5996 100.83 53.8517 101.028 54.0482 101.284C54.2447 101.54 54.3666 101.838 54.414 102.179H53.5759C53.512 101.93 53.3699 101.71 53.1498 101.518C52.932 101.324 52.6384 101.227 52.2691 101.227C51.9424 101.227 51.6559 101.312 51.4097 101.483C51.1659 101.651 50.9753 101.889 50.838 102.197C50.703 102.502 50.6356 102.861 50.6356 103.273C50.6356 103.694 50.7019 104.061 50.8344 104.374C50.9694 104.686 51.1588 104.929 51.4026 105.102C51.6488 105.274 51.9376 105.361 52.2691 105.361C52.4869 105.361 52.6846 105.323 52.8621 105.247C53.0397 105.171 53.19 105.062 53.3131 104.92C53.4362 104.778 53.5238 104.608 53.5759 104.409H54.414C54.3666 104.731 54.2494 105.021 54.0624 105.279C53.8778 105.535 53.6327 105.738 53.3273 105.89C53.0243 106.039 52.6715 106.114 52.2691 106.114ZM56.4772 102.719V106H55.6391V98.7273H56.4772V101.398H56.5482C56.676 101.116 56.8678 100.892 57.1235 100.727C57.3815 100.558 57.7248 100.474 58.1533 100.474C58.525 100.474 58.8505 100.549 59.1299 100.698C59.4092 100.845 59.6259 101.071 59.7797 101.376C59.936 101.679 60.0141 102.065 60.0141 102.534V106H59.176V102.591C59.176 102.158 59.0636 101.823 58.8387 101.586C58.6162 101.347 58.3072 101.227 57.9118 101.227C57.6372 101.227 57.391 101.285 57.1732 101.401C56.9578 101.517 56.7873 101.687 56.6618 101.909C56.5387 102.132 56.4772 102.402 56.4772 102.719ZM63.8343 106.114C63.3087 106.114 62.8553 105.998 62.4742 105.766C62.0954 105.531 61.803 105.205 61.597 104.786C61.3934 104.364 61.2916 103.874 61.2916 103.315C61.2916 102.757 61.3934 102.264 61.597 101.838C61.803 101.41 62.0895 101.076 62.4564 100.837C62.8257 100.595 63.2566 100.474 63.749 100.474C64.0331 100.474 64.3137 100.522 64.5906 100.616C64.8676 100.711 65.1198 100.865 65.347 101.078C65.5743 101.289 65.7554 101.568 65.8904 101.916C66.0253 102.264 66.0928 102.693 66.0928 103.202V103.557H61.8882V102.832H65.2405C65.2405 102.525 65.1789 102.25 65.0558 102.009C64.9351 101.767 64.7623 101.576 64.5374 101.437C64.3148 101.297 64.0521 101.227 63.749 101.227C63.4152 101.227 63.1264 101.31 62.8825 101.476C62.6411 101.639 62.4552 101.852 62.325 102.115C62.1948 102.378 62.1297 102.66 62.1297 102.96V103.443C62.1297 103.855 62.2007 104.204 62.3428 104.491C62.4872 104.775 62.6872 104.991 62.9429 105.141C63.1986 105.287 63.4957 105.361 63.8343 105.361C64.0544 105.361 64.2533 105.33 64.4308 105.268C64.6108 105.205 64.7658 105.11 64.896 104.984C65.0262 104.857 65.1269 104.698 65.1979 104.509L66.0075 104.736C65.9223 105.01 65.7791 105.252 65.5779 105.46C65.3766 105.666 65.128 105.827 64.8321 105.943C64.5362 106.057 64.2036 106.114 63.8343 106.114ZM71.2313 101.767L70.4784 101.98C70.4311 101.855 70.3612 101.733 70.2689 101.614C70.1789 101.494 70.0558 101.394 69.8996 101.316C69.7433 101.238 69.5433 101.199 69.2994 101.199C68.9656 101.199 68.6875 101.276 68.4649 101.43C68.2448 101.581 68.1347 101.774 68.1347 102.009C68.1347 102.217 68.2104 102.381 68.3619 102.502C68.5135 102.623 68.7502 102.723 69.0722 102.804L69.8818 103.003C70.3695 103.121 70.7329 103.302 70.972 103.546C71.2111 103.788 71.3307 104.099 71.3307 104.48C71.3307 104.793 71.2407 105.072 71.0608 105.318C70.8833 105.564 70.6347 105.759 70.3151 105.901C69.9955 106.043 69.6238 106.114 69.2 106.114C68.6437 106.114 68.1832 105.993 67.8186 105.751C67.454 105.51 67.2232 105.157 67.1262 104.693L67.9216 104.494C67.9974 104.788 68.1406 105.008 68.3513 105.155C68.5644 105.302 68.8425 105.375 69.1858 105.375C69.5764 105.375 69.8866 105.292 70.1162 105.126C70.3482 104.958 70.4642 104.757 70.4642 104.523C70.4642 104.333 70.3979 104.175 70.2654 104.047C70.1328 103.917 69.9292 103.82 69.6546 103.756L68.7455 103.543C68.2459 103.424 67.879 103.241 67.6446 102.992C67.4126 102.741 67.2966 102.428 67.2966 102.051C67.2966 101.743 67.383 101.471 67.5558 101.234C67.731 100.998 67.969 100.812 68.2696 100.677C68.5727 100.542 68.9159 100.474 69.2994 100.474C69.8392 100.474 70.263 100.593 70.5708 100.83C70.8809 101.066 71.1011 101.379 71.2313 101.767ZM76.6405 106L74.9786 100.545H75.8593L77.0383 104.722H77.0951L78.2599 100.545H79.1547L80.3053 104.707H80.3621L81.5411 100.545H82.4218L80.7599 106H79.936L78.7428 101.81H78.6576L77.4644 106H76.6405ZM83.5297 106V100.545H84.3678V106H83.5297ZM83.9559 99.6364C83.7925 99.6364 83.6517 99.5807 83.5333 99.4695C83.4173 99.3582 83.3593 99.2244 83.3593 99.0682C83.3593 98.9119 83.4173 98.7782 83.5333 98.6669C83.6517 98.5556 83.7925 98.5 83.9559 98.5C84.1192 98.5 84.2589 98.5556 84.3749 98.6669C84.4933 98.7782 84.5525 98.9119 84.5525 99.0682C84.5525 99.2244 84.4933 99.3582 84.3749 99.4695C84.2589 99.5807 84.1192 99.6364 83.9559 99.6364ZM88.2749 100.545V101.256H85.4482V100.545H88.2749ZM86.2721 99.2386H87.1102V104.438C87.1102 104.674 87.1445 104.852 87.2132 104.97C87.2842 105.086 87.3741 105.164 87.483 105.205C87.5943 105.242 87.7115 105.261 87.8346 105.261C87.9269 105.261 88.0027 105.257 88.0619 105.247C88.1211 105.235 88.1684 105.226 88.2039 105.219L88.3744 105.972C88.3176 105.993 88.2383 106.014 88.1365 106.036C88.0347 106.059 87.9056 106.071 87.7494 106.071C87.5126 106.071 87.2806 106.02 87.0534 105.918C86.8285 105.817 86.6414 105.661 86.4923 105.453C86.3455 105.245 86.2721 104.982 86.2721 104.665V99.2386ZM90.4909 102.719V106H89.6528V98.7273H90.4909V101.398H90.5619C90.6897 101.116 90.8815 100.892 91.1372 100.727C91.3952 100.558 91.7385 100.474 92.167 100.474C92.5387 100.474 92.8642 100.549 93.1436 100.698C93.4229 100.845 93.6395 101.071 93.7934 101.376C93.9497 101.679 94.0278 102.065 94.0278 102.534V106H93.1897V102.591C93.1897 102.158 93.0773 101.823 92.8524 101.586C92.6298 101.347 92.3209 101.227 91.9255 101.227C91.6509 101.227 91.4047 101.285 91.1869 101.401C90.9714 101.517 90.801 101.687 90.6755 101.909C90.5524 102.132 90.4909 102.402 90.4909 102.719ZM21.3649 114.719V118H20.5268V110.727H21.3649V113.398H21.4359C21.5637 113.116 21.7555 112.892 22.0112 112.727C22.2692 112.558 22.6125 112.474 23.041 112.474C23.4127 112.474 23.7382 112.549 24.0176 112.698C24.2969 112.845 24.5136 113.071 24.6674 113.376C24.8237 113.679 24.9018 114.065 24.9018 114.534V118H24.0637V114.591C24.0637 114.158 23.9513 113.823 23.7264 113.586C23.5038 113.347 23.1949 113.227 22.7995 113.227C22.5249 113.227 22.2787 113.285 22.0609 113.401C21.8455 113.517 21.675 113.687 21.5495 113.909C21.4264 114.132 21.3649 114.402 21.3649 114.719ZM29.8725 115.77V112.545H30.7106V118H29.8725V117.077H29.8157C29.6879 117.354 29.489 117.589 29.2191 117.783C28.9492 117.975 28.6083 118.071 28.1964 118.071C27.8555 118.071 27.5524 117.996 27.2873 117.847C27.0221 117.696 26.8138 117.469 26.6623 117.165C26.5108 116.86 26.435 116.475 26.435 116.011V112.545H27.2731V115.955C27.2731 116.352 27.3844 116.67 27.6069 116.906C27.8318 117.143 28.1183 117.261 28.4663 117.261C28.6746 117.261 28.8865 117.208 29.1019 117.102C29.3197 116.995 29.502 116.832 29.6488 116.612C29.7979 116.391 29.8725 116.111 29.8725 115.77ZM32.2456 118V112.545H33.0552V113.398H33.1262C33.2399 113.107 33.4234 112.88 33.6767 112.719C33.93 112.556 34.2342 112.474 34.5893 112.474C34.9492 112.474 35.2486 112.556 35.4877 112.719C35.7292 112.88 35.9174 113.107 36.0524 113.398H36.1092C36.2489 113.116 36.4584 112.892 36.7377 112.727C37.0171 112.558 37.3521 112.474 37.7427 112.474C38.2304 112.474 38.6293 112.627 38.9395 112.933C39.2496 113.236 39.4047 113.708 39.4047 114.349V118H38.5666V114.349C38.5666 113.947 38.4565 113.659 38.2363 113.487C38.0162 113.314 37.7569 113.227 37.4586 113.227C37.0751 113.227 36.778 113.343 36.5673 113.575C36.3566 113.805 36.2512 114.096 36.2512 114.449V118H35.399V114.264C35.399 113.954 35.2984 113.704 35.0971 113.515C34.8959 113.323 34.6367 113.227 34.3194 113.227C34.1016 113.227 33.898 113.285 33.7086 113.401C33.5216 113.517 33.3701 113.678 33.2541 113.884C33.1404 114.088 33.0836 114.323 33.0836 114.591V118H32.2456ZM43.1529 118.114C42.6605 118.114 42.2284 117.996 41.8567 117.762C41.4874 117.528 41.1986 117.2 40.9902 116.778C40.7843 116.357 40.6813 115.865 40.6813 115.301C40.6813 114.733 40.7843 114.237 40.9902 113.813C41.1986 113.389 41.4874 113.06 41.8567 112.826C42.2284 112.592 42.6605 112.474 43.1529 112.474C43.6453 112.474 44.0762 112.592 44.4455 112.826C44.8172 113.06 45.106 113.389 45.312 113.813C45.5203 114.237 45.6245 114.733 45.6245 115.301C45.6245 115.865 45.5203 116.357 45.312 116.778C45.106 117.2 44.8172 117.528 44.4455 117.762C44.0762 117.996 43.6453 118.114 43.1529 118.114ZM43.1529 117.361C43.5269 117.361 43.8347 117.265 44.0762 117.073C44.3176 116.881 44.4964 116.629 44.6124 116.317C44.7284 116.004 44.7864 115.666 44.7864 115.301C44.7864 114.937 44.7284 114.597 44.6124 114.282C44.4964 113.967 44.3176 113.713 44.0762 113.518C43.8347 113.324 43.5269 113.227 43.1529 113.227C42.7788 113.227 42.4711 113.324 42.2296 113.518C41.9881 113.713 41.8094 113.967 41.6934 114.282C41.5774 114.597 41.5194 114.937 41.5194 115.301C41.5194 115.666 41.5774 116.004 41.6934 116.317C41.8094 116.629 41.9881 116.881 42.2296 117.073C42.4711 117.265 42.7788 117.361 43.1529 117.361ZM50.3413 115.77V112.545H51.1793V118H50.3413V117.077H50.2844C50.1566 117.354 49.9577 117.589 49.6879 117.783C49.418 117.975 49.0771 118.071 48.6651 118.071C48.3242 118.071 48.0212 117.996 47.756 117.847C47.4909 117.696 47.2826 117.469 47.131 117.165C46.9795 116.86 46.9038 116.475 46.9038 116.011V112.545H47.7418V115.955C47.7418 116.352 47.8531 116.67 48.0756 116.906C48.3005 117.143 48.587 117.261 48.935 117.261C49.1433 117.261 49.3552 117.208 49.5707 117.102C49.7885 116.995 49.9708 116.832 50.1175 116.612C50.2667 116.391 50.3413 116.111 50.3413 115.77ZM52.7143 118V112.545H53.524V113.369H53.5808C53.6802 113.099 53.8601 112.88 54.1206 112.712C54.381 112.544 54.6745 112.46 55.0012 112.46C55.0628 112.46 55.1397 112.461 55.2321 112.464C55.3244 112.466 55.3942 112.47 55.4416 112.474V113.327C55.4132 113.32 55.3481 113.309 55.2463 113.295C55.1468 113.278 55.0415 113.27 54.9302 113.27C54.6651 113.27 54.4283 113.326 54.22 113.437C54.014 113.546 53.8507 113.697 53.7299 113.891C53.6116 114.083 53.5524 114.302 53.5524 114.548V118H52.7143ZM57.06 117.006L57.0032 117.389C56.9629 117.659 56.9014 117.948 56.8185 118.256C56.738 118.563 56.654 118.853 56.5664 119.126C56.4788 119.398 56.4066 119.615 56.3498 119.776H55.7106C55.7414 119.624 55.7816 119.424 55.8313 119.175C55.881 118.927 55.9308 118.649 55.9805 118.341C56.0326 118.036 56.0752 117.723 56.1083 117.403L56.1509 117.006H57.06ZM60.8287 118.114C60.3173 118.114 59.877 117.993 59.5076 117.751C59.1383 117.51 58.8542 117.177 58.6554 116.754C58.4565 116.33 58.3571 115.846 58.3571 115.301C58.3571 114.747 58.4589 114.258 58.6625 113.835C58.8684 113.408 59.1549 113.076 59.5218 112.837C59.8912 112.595 60.322 112.474 60.8145 112.474C61.198 112.474 61.5436 112.545 61.8514 112.688C62.1592 112.83 62.4113 113.028 62.6078 113.284C62.8043 113.54 62.9262 113.838 62.9735 114.179H62.1355C62.0716 113.93 61.9295 113.71 61.7093 113.518C61.4915 113.324 61.198 113.227 60.8287 113.227C60.502 113.227 60.2155 113.312 59.9693 113.483C59.7254 113.651 59.5349 113.889 59.3975 114.197C59.2626 114.502 59.1951 114.861 59.1951 115.273C59.1951 115.694 59.2614 116.061 59.394 116.374C59.5289 116.686 59.7183 116.929 59.9622 117.102C60.2084 117.274 60.4972 117.361 60.8287 117.361C61.0465 117.361 61.2441 117.323 61.4217 117.247C61.5993 117.171 61.7496 117.062 61.8727 116.92C61.9958 116.778 62.0834 116.608 62.1355 116.409H62.9735C62.9262 116.731 62.809 117.021 62.622 117.279C62.4373 117.535 62.1923 117.738 61.8869 117.89C61.5839 118.039 61.2311 118.114 60.8287 118.114ZM65.0368 110.727V118H64.1987V110.727H65.0368ZM68.1768 118.128C67.8312 118.128 67.5175 118.063 67.2358 117.933C66.9541 117.8 66.7304 117.609 66.5646 117.361C66.3989 117.11 66.3161 116.807 66.3161 116.452C66.3161 116.139 66.3776 115.886 66.5007 115.692C66.6238 115.495 66.7884 115.341 66.9943 115.23C67.2003 115.119 67.4276 115.036 67.6761 114.982C67.9271 114.925 68.1792 114.88 68.4325 114.847C68.764 114.804 69.0327 114.772 69.2386 114.751C69.447 114.727 69.5985 114.688 69.6932 114.634C69.7902 114.579 69.8388 114.484 69.8388 114.349V114.321C69.8388 113.971 69.7429 113.698 69.5511 113.504C69.3617 113.31 69.0741 113.213 68.6882 113.213C68.2881 113.213 67.9744 113.301 67.7472 113.476C67.5199 113.651 67.3601 113.838 67.2678 114.037L66.4723 113.753C66.6143 113.421 66.8037 113.163 67.0405 112.979C67.2796 112.792 67.54 112.661 67.8217 112.588C68.1058 112.512 68.3852 112.474 68.6598 112.474C68.835 112.474 69.0362 112.496 69.2635 112.538C69.4931 112.579 69.7145 112.663 69.9276 112.79C70.143 112.918 70.3217 113.111 70.4638 113.369C70.6058 113.627 70.6768 113.973 70.6768 114.406V118H69.8388V117.261H69.7962C69.7393 117.38 69.6446 117.506 69.5121 117.641C69.3795 117.776 69.2031 117.891 68.983 117.986C68.7628 118.08 68.4941 118.128 68.1768 118.128ZM68.3047 117.375C68.6361 117.375 68.9155 117.31 69.1428 117.18C69.3724 117.049 69.5452 116.881 69.6612 116.675C69.7796 116.469 69.8388 116.253 69.8388 116.026V115.259C69.8033 115.301 69.7251 115.34 69.6044 115.376C69.486 115.409 69.3487 115.438 69.1925 115.464C69.0386 115.488 68.8883 115.509 68.7415 115.528C68.5971 115.545 68.4799 115.559 68.3899 115.571C68.1721 115.599 67.9685 115.646 67.7791 115.71C67.5921 115.771 67.4406 115.865 67.3246 115.99C67.2109 116.113 67.1541 116.281 67.1541 116.494C67.1541 116.786 67.2618 117.006 67.4773 117.155C67.6951 117.302 67.9709 117.375 68.3047 117.375ZM72.2065 118V112.545H73.0162V113.369H73.073C73.1724 113.099 73.3523 112.88 73.6127 112.712C73.8732 112.544 74.1667 112.46 74.4934 112.46C74.555 112.46 74.6319 112.461 74.7243 112.464C74.8166 112.466 74.8864 112.47 74.9338 112.474V113.327C74.9054 113.32 74.8403 113.309 74.7385 113.295C74.639 113.278 74.5337 113.27 74.4224 113.27C74.1573 113.27 73.9205 113.326 73.7122 113.437C73.5062 113.546 73.3429 113.697 73.2221 113.891C73.1038 114.083 73.0446 114.302 73.0446 114.548V118H72.2065ZM75.9272 118V112.545H76.7653V118H75.9272ZM76.3533 111.636C76.19 111.636 76.0491 111.581 75.9308 111.469C75.8147 111.358 75.7567 111.224 75.7567 111.068C75.7567 110.912 75.8147 110.778 75.9308 110.667C76.0491 110.556 76.19 110.5 76.3533 110.5C76.5167 110.5 76.6564 110.556 76.7724 110.667C76.8907 110.778 76.9499 110.912 76.9499 111.068C76.9499 111.224 76.8907 111.358 76.7724 111.469C76.6564 111.581 76.5167 111.636 76.3533 111.636ZM80.6724 112.545V113.256H77.8457V112.545H80.6724ZM78.6696 111.239H79.5076V116.438C79.5076 116.674 79.542 116.852 79.6106 116.97C79.6816 117.086 79.7716 117.164 79.8805 117.205C79.9918 117.242 80.109 117.261 80.2321 117.261C80.3244 117.261 80.4002 117.257 80.4593 117.247C80.5185 117.235 80.5659 117.226 80.6014 117.219L80.7718 117.972C80.715 117.993 80.6357 118.014 80.5339 118.036C80.4321 118.059 80.3031 118.071 80.1468 118.071C79.9101 118.071 79.6781 118.02 79.4508 117.918C79.2259 117.817 79.0389 117.661 78.8897 117.453C78.743 117.245 78.6696 116.982 78.6696 116.665V111.239ZM82.4728 120.045C82.3308 120.045 82.2041 120.034 82.0929 120.01C81.9816 119.989 81.9047 119.967 81.862 119.946L82.0751 119.207C82.2787 119.259 82.4586 119.278 82.6149 119.264C82.7711 119.25 82.9096 119.18 83.0304 119.055C83.1535 118.932 83.2659 118.732 83.3677 118.455L83.524 118.028L81.5069 112.545H82.416L83.9217 116.892H83.9785L85.4842 112.545H86.3933L84.0779 118.795C83.9738 119.077 83.8448 119.31 83.6909 119.495C83.537 119.682 83.3583 119.821 83.1547 119.911C82.9534 120 82.7261 120.045 82.4728 120.045ZM91.9171 118.128C91.5714 118.128 91.2578 118.063 90.976 117.933C90.6943 117.8 90.4706 117.609 90.3049 117.361C90.1391 117.11 90.0563 116.807 90.0563 116.452C90.0563 116.139 90.1178 115.886 90.2409 115.692C90.3641 115.495 90.5286 115.341 90.7346 115.23C90.9405 115.119 91.1678 115.036 91.4164 114.982C91.6673 114.925 91.9194 114.88 92.1728 114.847C92.5042 114.804 92.7729 114.772 92.9789 114.751C93.1872 114.727 93.3387 114.688 93.4334 114.634C93.5305 114.579 93.579 114.484 93.579 114.349V114.321C93.579 113.971 93.4831 113.698 93.2914 113.504C93.102 113.31 92.8143 113.213 92.4284 113.213C92.0283 113.213 91.7147 113.301 91.4874 113.476C91.2601 113.651 91.1003 113.838 91.008 114.037L90.2125 113.753C90.3546 113.421 90.544 113.163 90.7807 112.979C91.0198 112.792 91.2802 112.661 91.562 112.588C91.8461 112.512 92.1254 112.474 92.4 112.474C92.5752 112.474 92.7765 112.496 93.0037 112.538C93.2334 112.579 93.4547 112.663 93.6678 112.79C93.8832 112.918 94.062 113.111 94.204 113.369C94.3461 113.627 94.4171 113.973 94.4171 114.406V118H93.579V117.261H93.5364C93.4796 117.38 93.3849 117.506 93.2523 117.641C93.1197 117.776 92.9434 117.891 92.7232 117.986C92.503 118.08 92.2343 118.128 91.9171 118.128ZM92.0449 117.375C92.3764 117.375 92.6557 117.31 92.883 117.18C93.1126 117.049 93.2855 116.881 93.4015 116.675C93.5198 116.469 93.579 116.253 93.579 116.026V115.259C93.5435 115.301 93.4654 115.34 93.3446 115.376C93.2263 115.409 93.089 115.438 92.9327 115.464C92.7788 115.488 92.6285 115.509 92.4817 115.528C92.3373 115.545 92.2201 115.559 92.1301 115.571C91.9123 115.599 91.7087 115.646 91.5194 115.71C91.3323 115.771 91.1808 115.865 91.0648 115.99C90.9512 116.113 90.8944 116.281 90.8944 116.494C90.8944 116.786 91.0021 117.006 91.2175 117.155C91.4353 117.302 91.7111 117.375 92.0449 117.375ZM96.7848 114.719V118H95.9467V112.545H96.7564V113.398H96.8274C96.9553 113.121 97.1494 112.898 97.4098 112.73C97.6702 112.56 98.0064 112.474 98.4183 112.474C98.7876 112.474 99.1108 112.55 99.3878 112.702C99.6648 112.851 99.8802 113.078 100.034 113.384C100.188 113.687 100.265 114.07 100.265 114.534V118H99.4268V114.591C99.4268 114.162 99.3156 113.829 99.093 113.589C98.8705 113.348 98.5651 113.227 98.1768 113.227C97.9093 113.227 97.6702 113.285 97.4595 113.401C97.2512 113.517 97.0866 113.687 96.9659 113.909C96.8452 114.132 96.7848 114.402 96.7848 114.719ZM103.856 118.114C103.401 118.114 103 117.999 102.652 117.769C102.304 117.537 102.032 117.21 101.835 116.789C101.639 116.365 101.541 115.865 101.541 115.287C101.541 114.714 101.639 114.217 101.835 113.795C102.032 113.374 102.305 113.049 102.656 112.819C103.006 112.589 103.411 112.474 103.87 112.474C104.225 112.474 104.506 112.534 104.712 112.652C104.92 112.768 105.079 112.901 105.188 113.05C105.299 113.196 105.385 113.317 105.447 113.412H105.518V110.727H106.356V118H105.546V117.162H105.447C105.385 117.261 105.298 117.387 105.184 117.538C105.07 117.687 104.908 117.821 104.698 117.94C104.487 118.056 104.206 118.114 103.856 118.114ZM103.97 117.361C104.306 117.361 104.59 117.273 104.822 117.098C105.054 116.92 105.23 116.675 105.351 116.363C105.472 116.048 105.532 115.685 105.532 115.273C105.532 114.866 105.473 114.509 105.355 114.204C105.236 113.896 105.061 113.657 104.829 113.487C104.597 113.314 104.311 113.227 103.97 113.227C103.615 113.227 103.319 113.318 103.082 113.501C102.847 113.681 102.671 113.926 102.553 114.236C102.437 114.544 102.379 114.889 102.379 115.273C102.379 115.661 102.438 116.014 102.556 116.331C102.677 116.646 102.855 116.897 103.089 117.084C103.326 117.268 103.619 117.361 103.97 117.361ZM31.1341 130.114C30.6085 130.114 30.1551 129.998 29.774 129.766C29.3952 129.531 29.1028 129.205 28.8968 128.786C28.6932 128.364 28.5914 127.874 28.5914 127.315C28.5914 126.757 28.6932 126.264 28.8968 125.838C29.1028 125.41 29.3893 125.076 29.7562 124.837C30.1255 124.595 30.5564 124.474 31.0488 124.474C31.3329 124.474 31.6135 124.522 31.8904 124.616C32.1674 124.711 32.4196 124.865 32.6468 125.078C32.8741 125.289 33.0552 125.568 33.1902 125.916C33.3251 126.264 33.3926 126.693 33.3926 127.202V127.557H29.188V126.832H32.5403C32.5403 126.525 32.4788 126.25 32.3556 126.009C32.2349 125.767 32.0621 125.576 31.8372 125.437C31.6146 125.297 31.3519 125.227 31.0488 125.227C30.715 125.227 30.4262 125.31 30.1824 125.476C29.9409 125.639 29.755 125.852 29.6248 126.115C29.4946 126.378 29.4295 126.66 29.4295 126.96V127.443C29.4295 127.855 29.5005 128.204 29.6426 128.491C29.787 128.775 29.987 128.991 30.2427 129.141C30.4984 129.287 30.7955 129.361 31.1341 129.361C31.3542 129.361 31.5531 129.33 31.7306 129.268C31.9106 129.205 32.0656 129.11 32.1958 128.984C32.3261 128.857 32.4267 128.698 32.4977 128.509L33.3074 128.736C33.2221 129.01 33.0789 129.252 32.8777 129.46C32.6764 129.666 32.4279 129.827 32.1319 129.943C31.836 130.057 31.5034 130.114 31.1341 130.114ZM35.5055 126.719V130H34.6674V124.545H35.4771V125.398H35.5481C35.676 125.121 35.8701 124.898 36.1305 124.73C36.3909 124.56 36.7271 124.474 37.139 124.474C37.5083 124.474 37.8315 124.55 38.1085 124.702C38.3855 124.851 38.6009 125.078 38.7548 125.384C38.9087 125.687 38.9856 126.07 38.9856 126.534V130H38.1475V126.591C38.1475 126.162 38.0363 125.829 37.8137 125.589C37.5912 125.348 37.2858 125.227 36.8975 125.227C36.63 125.227 36.3909 125.285 36.1802 125.401C35.9719 125.517 35.8074 125.687 35.6866 125.909C35.5659 126.132 35.5055 126.402 35.5055 126.719ZM42.7188 132.159C42.3139 132.159 41.9659 132.107 41.6747 132.003C41.3835 131.901 41.1409 131.766 40.9467 131.598C40.755 131.432 40.6023 131.255 40.4886 131.065L41.1562 130.597C41.232 130.696 41.3279 130.81 41.4439 130.938C41.5599 131.068 41.7185 131.18 41.9197 131.275C42.1233 131.372 42.3897 131.42 42.7188 131.42C43.1591 131.42 43.5225 131.314 43.8089 131.101C44.0954 130.888 44.2386 130.554 44.2386 130.099V128.991H44.1676C44.1061 129.091 44.0185 129.214 43.9048 129.361C43.7936 129.505 43.6326 129.634 43.4219 129.748C43.2135 129.859 42.9318 129.915 42.5767 129.915C42.1364 129.915 41.741 129.811 41.3906 129.602C41.0426 129.394 40.7668 129.091 40.5632 128.693C40.362 128.295 40.2614 127.812 40.2614 127.244C40.2614 126.686 40.3596 126.199 40.5561 125.785C40.7526 125.368 41.026 125.046 41.3764 124.819C41.7268 124.589 42.1316 124.474 42.5909 124.474C42.946 124.474 43.2277 124.534 43.4361 124.652C43.6468 124.768 43.8078 124.901 43.919 125.05C44.0327 125.196 44.1203 125.317 44.1818 125.412H44.267V124.545H45.0767V130.156C45.0767 130.625 44.9702 131.006 44.7571 131.3C44.5464 131.596 44.2623 131.812 43.9048 131.95C43.5497 132.089 43.1544 132.159 42.7188 132.159ZM42.6903 129.162C43.0265 129.162 43.3106 129.085 43.5426 128.931C43.7746 128.777 43.951 128.556 44.0717 128.267C44.1925 127.978 44.2528 127.633 44.2528 127.23C44.2528 126.837 44.1937 126.49 44.0753 126.19C43.9569 125.889 43.7817 125.653 43.5497 125.483C43.3177 125.312 43.0313 125.227 42.6903 125.227C42.3352 125.227 42.0393 125.317 41.8026 125.497C41.5682 125.677 41.3918 125.919 41.2734 126.222C41.1574 126.525 41.0994 126.861 41.0994 127.23C41.0994 127.609 41.1586 127.944 41.277 128.235C41.3977 128.524 41.5753 128.751 41.8097 128.917C42.0464 129.08 42.34 129.162 42.6903 129.162ZM48.2159 130.128C47.8703 130.128 47.5566 130.063 47.2749 129.933C46.9931 129.8 46.7694 129.609 46.6037 129.361C46.438 129.11 46.3551 128.807 46.3551 128.452C46.3551 128.139 46.4167 127.886 46.5398 127.692C46.6629 127.495 46.8274 127.341 47.0334 127.23C47.2393 127.119 47.4666 127.036 47.7152 126.982C47.9661 126.925 48.2183 126.88 48.4716 126.847C48.803 126.804 49.0717 126.772 49.2777 126.751C49.486 126.727 49.6375 126.688 49.7322 126.634C49.8293 126.579 49.8778 126.484 49.8778 126.349V126.321C49.8778 125.971 49.782 125.698 49.5902 125.504C49.4008 125.31 49.1132 125.213 48.7273 125.213C48.3272 125.213 48.0135 125.301 47.7862 125.476C47.5589 125.651 47.3991 125.838 47.3068 126.037L46.5114 125.753C46.6534 125.421 46.8428 125.163 47.0795 124.979C47.3187 124.792 47.5791 124.661 47.8608 124.588C48.1449 124.512 48.4242 124.474 48.6989 124.474C48.8741 124.474 49.0753 124.496 49.3026 124.538C49.5322 124.579 49.7536 124.663 49.9666 124.79C50.1821 124.918 50.3608 125.111 50.5028 125.369C50.6449 125.627 50.7159 125.973 50.7159 126.406V130H49.8778V129.261H49.8352C49.7784 129.38 49.6837 129.506 49.5511 129.641C49.4186 129.776 49.2422 129.891 49.022 129.986C48.8018 130.08 48.5331 130.128 48.2159 130.128ZM48.3438 129.375C48.6752 129.375 48.9545 129.31 49.1818 129.18C49.4115 129.049 49.5843 128.881 49.7003 128.675C49.8187 128.469 49.8778 128.253 49.8778 128.026V127.259C49.8423 127.301 49.7642 127.34 49.6435 127.376C49.5251 127.409 49.3878 127.438 49.2315 127.464C49.0777 127.488 48.9273 127.509 48.7805 127.528C48.6361 127.545 48.5189 127.559 48.429 127.571C48.2112 127.599 48.0076 127.646 47.8182 127.71C47.6312 127.771 47.4796 127.865 47.3636 127.99C47.25 128.113 47.1932 128.281 47.1932 128.494C47.1932 128.786 47.3009 129.006 47.5163 129.155C47.7341 129.302 48.0099 129.375 48.3438 129.375ZM54.4473 132.159C54.0424 132.159 53.6944 132.107 53.4032 132.003C53.112 131.901 52.8694 131.766 52.6752 131.598C52.4835 131.432 52.3308 131.255 52.2172 131.065L52.8848 130.597C52.9605 130.696 53.0564 130.81 53.1724 130.938C53.2884 131.068 53.447 131.18 53.6483 131.275C53.8519 131.372 54.1182 131.42 54.4473 131.42C54.8876 131.42 55.251 131.314 55.5375 131.101C55.8239 130.888 55.9672 130.554 55.9672 130.099V128.991H55.8961C55.8346 129.091 55.747 129.214 55.6333 129.361C55.5221 129.505 55.3611 129.634 55.1504 129.748C54.9421 129.859 54.6603 129.915 54.3052 129.915C53.8649 129.915 53.4695 129.811 53.1191 129.602C52.7711 129.394 52.4953 129.091 52.2917 128.693C52.0905 128.295 51.9899 127.812 51.9899 127.244C51.9899 126.686 52.0881 126.199 52.2846 125.785C52.4811 125.368 52.7546 125.046 53.1049 124.819C53.4553 124.589 53.8601 124.474 54.3194 124.474C54.6745 124.474 54.9563 124.534 55.1646 124.652C55.3753 124.768 55.5363 124.901 55.6475 125.05C55.7612 125.196 55.8488 125.317 55.9103 125.412H55.9956V124.545H56.8052V130.156C56.8052 130.625 56.6987 131.006 56.4856 131.3C56.2749 131.596 55.9908 131.812 55.6333 131.95C55.2782 132.089 54.8829 132.159 54.4473 132.159ZM54.4189 129.162C54.755 129.162 55.0391 129.085 55.2711 128.931C55.5031 128.777 55.6795 128.556 55.8002 128.267C55.921 127.978 55.9814 127.633 55.9814 127.23C55.9814 126.837 55.9222 126.49 55.8038 126.19C55.6854 125.889 55.5102 125.653 55.2782 125.483C55.0462 125.312 54.7598 125.227 54.4189 125.227C54.0637 125.227 53.7678 125.317 53.5311 125.497C53.2967 125.677 53.1203 125.919 53.002 126.222C52.8859 126.525 52.8279 126.861 52.8279 127.23C52.8279 127.609 52.8871 127.944 53.0055 128.235C53.1262 128.524 53.3038 128.751 53.5382 128.917C53.7749 129.08 54.0685 129.162 54.4189 129.162ZM58.3393 130V124.545H59.1774V130H58.3393ZM58.7654 123.636C58.6021 123.636 58.4612 123.581 58.3429 123.469C58.2269 123.358 58.1689 123.224 58.1689 123.068C58.1689 122.912 58.2269 122.778 58.3429 122.667C58.4612 122.556 58.6021 122.5 58.7654 122.5C58.9288 122.5 59.0685 122.556 59.1845 122.667C59.3029 122.778 59.362 122.912 59.362 123.068C59.362 123.224 59.3029 123.358 59.1845 123.469C59.0685 123.581 58.9288 123.636 58.7654 123.636ZM61.5504 126.719V130H60.7124V124.545H61.522V125.398H61.593C61.7209 125.121 61.915 124.898 62.1754 124.73C62.4358 124.56 62.772 124.474 63.1839 124.474C63.5533 124.474 63.8764 124.55 64.1534 124.702C64.4304 124.851 64.6458 125.078 64.7997 125.384C64.9536 125.687 65.0305 126.07 65.0305 126.534V130H64.1925V126.591C64.1925 126.162 64.0812 125.829 63.8587 125.589C63.6361 125.348 63.3307 125.227 62.9425 125.227C62.675 125.227 62.4358 125.285 62.2251 125.401C62.0168 125.517 61.8523 125.687 61.7315 125.909C61.6108 126.132 61.5504 126.402 61.5504 126.719ZM68.7637 132.159C68.3588 132.159 68.0108 132.107 67.7196 132.003C67.4284 131.901 67.1858 131.766 66.9917 131.598C66.7999 131.432 66.6472 131.255 66.5336 131.065L67.2012 130.597C67.2769 130.696 67.3728 130.81 67.4888 130.938C67.6048 131.068 67.7634 131.18 67.9647 131.275C68.1683 131.372 68.4346 131.42 68.7637 131.42C69.204 131.42 69.5674 131.314 69.8539 131.101C70.1403 130.888 70.2836 130.554 70.2836 130.099V128.991H70.2125C70.151 129.091 70.0634 129.214 69.9498 129.361C69.8385 129.505 69.6775 129.634 69.4668 129.748C69.2585 129.859 68.9767 129.915 68.6216 129.915C68.1813 129.915 67.7859 129.811 67.4355 129.602C67.0875 129.394 66.8117 129.091 66.6081 128.693C66.4069 128.295 66.3063 127.812 66.3063 127.244C66.3063 126.686 66.4045 126.199 66.601 125.785C66.7975 125.368 67.071 125.046 67.4213 124.819C67.7717 124.589 68.1766 124.474 68.6358 124.474C68.9909 124.474 69.2727 124.534 69.481 124.652C69.6917 124.768 69.8527 124.901 69.964 125.05C70.0776 125.196 70.1652 125.317 70.2267 125.412H70.312V124.545H71.1216V130.156C71.1216 130.625 71.0151 131.006 70.802 131.3C70.5913 131.596 70.3072 131.812 69.9498 131.95C69.5946 132.089 69.1993 132.159 68.7637 132.159ZM68.7353 129.162C69.0714 129.162 69.3555 129.085 69.5875 128.931C69.8195 128.777 69.9959 128.556 70.1167 128.267C70.2374 127.978 70.2978 127.633 70.2978 127.23C70.2978 126.837 70.2386 126.49 70.1202 126.19C70.0018 125.889 69.8266 125.653 69.5946 125.483C69.3626 125.312 69.0762 125.227 68.7353 125.227C68.3801 125.227 68.0842 125.317 67.8475 125.497C67.6131 125.677 67.4367 125.919 67.3184 126.222C67.2024 126.525 67.1444 126.861 67.1444 127.23C67.1444 127.609 67.2035 127.944 67.3219 128.235C67.4426 128.524 67.6202 128.751 67.8546 128.917C68.0913 129.08 68.3849 129.162 68.7353 129.162ZM79.3319 125.767L78.579 125.98C78.5317 125.855 78.4618 125.733 78.3695 125.614C78.2795 125.494 78.1564 125.394 78.0002 125.316C77.8439 125.238 77.6439 125.199 77.4 125.199C77.0662 125.199 76.7881 125.276 76.5655 125.43C76.3453 125.581 76.2353 125.774 76.2353 126.009C76.2353 126.217 76.311 126.381 76.4625 126.502C76.6141 126.623 76.8508 126.723 77.1728 126.804L77.9824 127.003C78.4701 127.121 78.8335 127.302 79.0726 127.546C79.3117 127.788 79.4313 128.099 79.4313 128.48C79.4313 128.793 79.3413 129.072 79.1614 129.318C78.9838 129.564 78.7353 129.759 78.4157 129.901C78.0961 130.043 77.7244 130.114 77.3006 130.114C76.7443 130.114 76.2838 129.993 75.9192 129.751C75.5546 129.51 75.3238 129.157 75.2267 128.693L76.0222 128.494C76.098 128.788 76.2412 129.008 76.4519 129.155C76.665 129.302 76.9431 129.375 77.2864 129.375C77.677 129.375 77.9872 129.292 78.2168 129.126C78.4488 128.958 78.5648 128.757 78.5648 128.523C78.5648 128.333 78.4985 128.175 78.3659 128.047C78.2334 127.917 78.0298 127.82 77.7551 127.756L76.8461 127.543C76.3465 127.424 75.9796 127.241 75.7452 126.992C75.5132 126.741 75.3972 126.428 75.3972 126.051C75.3972 125.743 75.4836 125.471 75.6564 125.234C75.8316 124.998 76.0695 124.812 76.3702 124.677C76.6732 124.542 77.0165 124.474 77.4 124.474C77.9398 124.474 78.3636 124.593 78.6713 124.83C78.9815 125.066 79.2016 125.379 79.3319 125.767ZM83.065 124.545V125.256H80.2383V124.545H83.065ZM81.0621 123.239H81.9002V128.438C81.9002 128.674 81.9345 128.852 82.0032 128.97C82.0742 129.086 82.1642 129.164 82.2731 129.205C82.3844 129.242 82.5015 129.261 82.6246 129.261C82.717 129.261 82.7927 129.257 82.8519 129.247C82.9111 129.235 82.9585 129.226 82.994 129.219L83.1644 129.972C83.1076 129.993 83.0283 130.014 82.9265 130.036C82.8247 130.059 82.6957 130.071 82.5394 130.071C82.3027 130.071 82.0707 130.02 81.8434 129.918C81.6185 129.817 81.4315 129.661 81.2823 129.453C81.1355 129.245 81.0621 128.982 81.0621 128.665V123.239ZM86.483 130.114C85.9905 130.114 85.5585 129.996 85.1868 129.762C84.8175 129.528 84.5286 129.2 84.3203 128.778C84.1143 128.357 84.0114 127.865 84.0114 127.301C84.0114 126.733 84.1143 126.237 84.3203 125.813C84.5286 125.389 84.8175 125.06 85.1868 124.826C85.5585 124.592 85.9905 124.474 86.483 124.474C86.9754 124.474 87.4063 124.592 87.7756 124.826C88.1473 125.06 88.4361 125.389 88.642 125.813C88.8504 126.237 88.9545 126.733 88.9545 127.301C88.9545 127.865 88.8504 128.357 88.642 128.778C88.4361 129.2 88.1473 129.528 87.7756 129.762C87.4063 129.996 86.9754 130.114 86.483 130.114ZM86.483 129.361C86.857 129.361 87.1648 129.265 87.4062 129.073C87.6477 128.881 87.8265 128.629 87.9425 128.317C88.0585 128.004 88.1165 127.666 88.1165 127.301C88.1165 126.937 88.0585 126.597 87.9425 126.282C87.8265 125.967 87.6477 125.713 87.4062 125.518C87.1648 125.324 86.857 125.227 86.483 125.227C86.1089 125.227 85.8011 125.324 85.5597 125.518C85.3182 125.713 85.1394 125.967 85.0234 126.282C84.9074 126.597 84.8494 126.937 84.8494 127.301C84.8494 127.666 84.9074 128.004 85.0234 128.317C85.1394 128.629 85.3182 128.881 85.5597 129.073C85.8011 129.265 86.1089 129.361 86.483 129.361ZM90.2338 130V124.545H91.0435V125.369H91.1003C91.1998 125.099 91.3797 124.88 91.6401 124.712C91.9005 124.544 92.1941 124.46 92.5208 124.46C92.5823 124.46 92.6593 124.461 92.7516 124.464C92.8439 124.466 92.9138 124.47 92.9611 124.474V125.327C92.9327 125.32 92.8676 125.309 92.7658 125.295C92.6664 125.278 92.561 125.27 92.4498 125.27C92.1846 125.27 91.9479 125.326 91.7395 125.437C91.5336 125.546 91.3702 125.697 91.2495 125.891C91.1311 126.083 91.0719 126.302 91.0719 126.548V130H90.2338ZM94.6603 132.045C94.5183 132.045 94.3916 132.034 94.2804 132.01C94.1691 131.989 94.0922 131.967 94.0495 131.946L94.2626 131.207C94.4662 131.259 94.6461 131.278 94.8024 131.264C94.9586 131.25 95.0971 131.18 95.2179 131.055C95.341 130.932 95.4534 130.732 95.5552 130.455L95.7115 130.028L93.6944 124.545H94.6035L96.1092 128.892H96.166L97.6717 124.545H98.5808L96.2654 130.795C96.1613 131.077 96.0323 131.31 95.8784 131.495C95.7245 131.682 95.5458 131.821 95.3422 131.911C95.1409 132 94.9136 132.045 94.6603 132.045ZM52.4107 136.545V137.256H49.584V136.545H52.4107ZM50.4078 135.239H51.2459V140.438C51.2459 140.674 51.2802 140.852 51.3489 140.97C51.4199 141.086 51.5099 141.164 51.6188 141.205C51.7301 141.242 51.8472 141.261 51.9703 141.261C52.0627 141.261 52.1384 141.257 52.1976 141.247C52.2568 141.235 52.3042 141.226 52.3397 141.219L52.5101 141.972C52.4533 141.993 52.374 142.014 52.2722 142.036C52.1704 142.059 52.0414 142.071 51.8851 142.071C51.6484 142.071 51.4164 142.02 51.1891 141.918C50.9642 141.817 50.7772 141.661 50.628 141.453C50.4812 141.245 50.4078 140.982 50.4078 140.665V135.239ZM55.8997 142.114C55.3741 142.114 54.9208 141.998 54.5396 141.766C54.1608 141.531 53.8684 141.205 53.6625 140.786C53.4589 140.364 53.3571 139.874 53.3571 139.315C53.3571 138.757 53.4589 138.264 53.6625 137.838C53.8684 137.41 54.1549 137.076 54.5218 136.837C54.8912 136.595 55.322 136.474 55.8145 136.474C56.0985 136.474 56.3791 136.522 56.6561 136.616C56.9331 136.711 57.1852 136.865 57.4125 137.078C57.6397 137.289 57.8208 137.568 57.9558 137.916C58.0907 138.264 58.1582 138.693 58.1582 139.202V139.557H53.9537V138.832H57.3059C57.3059 138.525 57.2444 138.25 57.1213 138.009C57.0005 137.767 56.8277 137.576 56.6028 137.437C56.3803 137.297 56.1175 137.227 55.8145 137.227C55.4806 137.227 55.1918 137.31 54.948 137.476C54.7065 137.639 54.5207 137.852 54.3904 138.115C54.2602 138.378 54.1951 138.66 54.1951 138.96V139.443C54.1951 139.855 54.2662 140.204 54.4082 140.491C54.5526 140.775 54.7527 140.991 55.0083 141.141C55.264 141.287 55.5611 141.361 55.8997 141.361C56.1199 141.361 56.3187 141.33 56.4963 141.268C56.6762 141.205 56.8313 141.11 56.9615 140.984C57.0917 140.857 57.1923 140.698 57.2633 140.509L58.073 140.736C57.9877 141.01 57.8445 141.252 57.6433 141.46C57.4421 141.666 57.1935 141.827 56.8975 141.943C56.6016 142.057 56.269 142.114 55.8997 142.114ZM60.2711 134.727V142H59.4331V134.727H60.2711ZM62.6442 134.727V142H61.8061V134.727H62.6442ZM64.1792 142V136.545H65.0172V142H64.1792ZM64.6053 135.636C64.4419 135.636 64.3011 135.581 64.1827 135.469C64.0667 135.358 64.0087 135.224 64.0087 135.068C64.0087 134.912 64.0667 134.778 64.1827 134.667C64.3011 134.556 64.4419 134.5 64.6053 134.5C64.7686 134.5 64.9083 134.556 65.0243 134.667C65.1427 134.778 65.2019 134.912 65.2019 135.068C65.2019 135.224 65.1427 135.358 65.0243 135.469C64.9083 135.581 64.7686 135.636 64.6053 135.636ZM67.3903 138.719V142H66.5522V136.545H67.3619V137.398H67.4329C67.5607 137.121 67.7549 136.898 68.0153 136.73C68.2757 136.56 68.6119 136.474 69.0238 136.474C69.3931 136.474 69.7163 136.55 69.9933 136.702C70.2702 136.851 70.4857 137.078 70.6396 137.384C70.7934 137.687 70.8704 138.07 70.8704 138.534V142H70.0323V138.591C70.0323 138.162 69.921 137.829 69.6985 137.589C69.476 137.348 69.1706 137.227 68.7823 137.227C68.5148 137.227 68.2757 137.285 68.065 137.401C67.8567 137.517 67.6921 137.687 67.5714 137.909C67.4506 138.132 67.3903 138.402 67.3903 138.719ZM74.6035 144.159C74.1987 144.159 73.8507 144.107 73.5595 144.003C73.2683 143.901 73.0256 143.766 72.8315 143.598C72.6397 143.432 72.487 143.255 72.3734 143.065L73.041 142.597C73.1168 142.696 73.2127 142.81 73.3287 142.938C73.4447 143.068 73.6033 143.18 73.8045 143.275C74.0081 143.372 74.2744 143.42 74.6035 143.42C75.0439 143.42 75.4073 143.314 75.6937 143.101C75.9802 142.888 76.1234 142.554 76.1234 142.099V140.991H76.0524C75.9908 141.091 75.9032 141.214 75.7896 141.361C75.6783 141.505 75.5173 141.634 75.3066 141.748C75.0983 141.859 74.8166 141.915 74.4615 141.915C74.0211 141.915 73.6258 141.811 73.2754 141.602C72.9274 141.394 72.6516 141.091 72.448 140.693C72.2467 140.295 72.1461 139.812 72.1461 139.244C72.1461 138.686 72.2444 138.199 72.4409 137.785C72.6374 137.368 72.9108 137.046 73.2612 136.819C73.6116 136.589 74.0164 136.474 74.4757 136.474C74.8308 136.474 75.1125 136.534 75.3208 136.652C75.5315 136.768 75.6925 136.901 75.8038 137.05C75.9174 137.196 76.005 137.317 76.0666 137.412H76.1518V136.545H76.9615V142.156C76.9615 142.625 76.8549 143.006 76.6419 143.3C76.4312 143.596 76.1471 143.812 75.7896 143.95C75.4345 144.089 75.0391 144.159 74.6035 144.159ZM74.5751 141.162C74.9113 141.162 75.1954 141.085 75.4274 140.931C75.6594 140.777 75.8358 140.556 75.9565 140.267C76.0772 139.978 76.1376 139.633 76.1376 139.23C76.1376 138.837 76.0784 138.49 75.96 138.19C75.8417 137.889 75.6665 137.653 75.4345 137.483C75.2025 137.312 74.916 137.227 74.5751 137.227C74.22 137.227 73.9241 137.317 73.6873 137.497C73.4529 137.677 73.2766 137.919 73.1582 138.222C73.0422 138.525 72.9842 138.861 72.9842 139.23C72.9842 139.609 73.0434 139.944 73.1618 140.235C73.2825 140.524 73.46 140.751 73.6944 140.917C73.9312 141.08 74.2247 141.162 74.5751 141.162Z" fill="black"/>
</g>
<defs>
<filter id="filter0_d_5_11" x="0" y="0" width="126" height="175" filterUnits="userSpaceOnUse" color-interpolation-filters="sRGB">
<feFlood flood-opacity="0" result="BackgroundImageFix"/>
<feColorMatrix in="SourceAlpha" type="matrix" values="0 0 0 0 0 0 0 0 0 0 0 0 0 0 0 0 0 0 127 0" result="hardAlpha"/>
<feOffset dy="4"/>
<feGaussianBlur stdDeviation="2"/>
<feComposite in2="hardAlpha" operator="out"/>
<feColorMatrix type="matrix" values="0 0 0 0 0 0 0 0 0 0 0 0 0 0 0 0 0 0 0.25 0"/>
<feBlend mode="normal" in2="BackgroundImageFix" result="effect1_dropShadow_5_11"/>
<feBlend mode="normal" in="SourceGraphic" in2="effect1_dropShadow_5_11" result="shape"/>
</filter>
</defs>
</svg>
